<?xml version="1.0" encoding="UTF-8" ?>
<!DOCTYPE svg PUBLIC "-//W3C//DTD SVG 1.1//EN" "http://www.w3.org/Graphics/SVG/1.1/DTD/svg11.dtd">
<svg width="406pt" height="175pt" viewBox="0 0 406 175" version="1.1" xmlns="http://www.w3.org/2000/svg">
<g id="#ffffffff">
</g>
<g id="#3c3b3dff">
<path fill="#3c3b3d" opacity="1.00" d=" M 32.22 0.00 L 39.28 0.00 C 39.29 2.35 39.31 4.71 39.33 7.06 C 36.95 7.03 34.58 7.01 32.20 6.99 C 32.21 4.66 32.21 2.33 32.22 0.00 Z" />
</g>
<g id="#7b797bff">
<path fill="#7b797b" opacity="1.00" d=" M 43.22 12.45 C 47.79 12.46 52.35 12.49 56.91 12.41 C 57.06 17.06 57.02 21.70 56.95 26.35 C 52.37 26.25 47.79 26.32 43.22 26.24 C 43.23 21.64 43.19 17.05 43.22 12.45 Z" />
</g>
<g id="#870005ff">
<path fill="#870005" opacity="1.00" d=" M 26.06 17.21 C 31.35 17.21 36.64 17.20 41.93 17.22 C 42.02 20.63 42.05 24.04 42.09 27.45 C 45.42 27.45 48.75 27.42 52.08 27.44 C 52.00 31.99 51.96 36.56 52.11 41.11 C 48.44 41.00 44.78 41.02 41.11 41.07 C 41.05 41.71 40.92 42.98 40.86 43.62 C 37.65 43.56 34.44 43.56 31.23 43.58 C 31.22 41.59 31.22 39.60 31.23 37.60 C 29.46 37.59 27.70 37.56 25.94 37.55 C 26.06 30.77 25.86 23.99 26.06 17.21 Z" />
<path fill="#870005" opacity="1.00" d=" M 0.00 46.20 C 5.28 46.18 10.56 46.30 15.84 46.09 C 16.05 46.34 16.46 46.85 16.67 47.11 C 16.91 52.52 16.79 57.94 16.75 63.36 C 11.17 63.27 5.58 63.32 0.00 63.31 L 0.00 46.20 Z" />
<path fill="#870005" opacity="1.00" d=" M 28.74 51.66 C 33.80 51.71 38.87 51.75 43.93 51.64 C 44.07 56.68 44.02 61.72 44.04 66.76 C 38.94 66.84 33.84 66.77 28.74 66.83 C 28.66 61.77 28.66 56.72 28.74 51.66 Z" />
<path fill="#870005" opacity="1.00" d=" M 161.94 56.19 C 168.19 56.22 174.44 56.14 180.69 56.23 C 171.68 82.10 162.24 107.81 153.26 133.70 C 148.34 133.89 143.41 133.79 138.48 133.76 C 129.55 116.13 119.78 98.92 110.89 81.26 C 115.64 78.60 120.09 75.45 124.82 72.75 C 131.51 85.91 138.45 98.93 145.11 112.10 C 150.77 93.48 156.28 74.81 161.94 56.19 Z" />
</g>
<g id="#3c3a3dff">
<path fill="#3c3a3d" opacity="1.00" d=" M 14.87 38.44 C 20.02 38.42 25.18 38.43 30.33 38.44 C 30.29 42.48 30.28 46.51 30.29 50.55 C 29.61 50.55 28.25 50.56 27.57 50.56 C 27.57 51.36 27.58 52.95 27.58 53.75 C 24.37 53.79 21.17 53.80 17.96 53.77 C 17.70 50.66 18.86 46.96 16.64 44.36 L 16.67 47.11 C 16.46 46.85 16.05 46.34 15.84 46.09 C 14.74 43.69 14.99 41.00 14.87 38.44 Z" />
</g>
<g id="#636062ff">
<path fill="#636062" opacity="1.00" d=" M 42.06 42.20 C 47.69 42.20 53.31 42.23 58.94 42.20 C 59.06 47.79 59.00 53.38 58.96 58.97 C 54.33 59.01 49.70 58.97 45.07 59.04 C 44.98 56.16 44.94 53.28 44.91 50.40 C 44.17 50.45 42.68 50.53 41.94 50.57 C 41.96 47.78 41.99 44.99 42.06 42.20 Z" />
<path fill="#636062" opacity="1.00" d=" M 314.83 125.22 C 316.20 125.09 317.57 124.95 318.95 124.82 C 319.04 128.26 319.19 131.73 318.53 135.13 C 316.95 132.51 317.79 129.35 317.75 126.47 C 316.77 126.06 315.80 125.64 314.83 125.22 Z" />
</g>
<g id="#3c3b3cff">
<path fill="#3c3b3c" opacity="1.00" d=" M 297.41 58.35 C 306.44 46.75 324.72 45.06 336.47 53.39 C 348.87 62.24 350.52 82.84 339.07 93.14 C 331.59 99.57 322.29 103.45 314.73 109.78 C 310.98 112.63 307.70 116.45 306.74 121.17 C 305.65 126.84 306.05 132.65 306.04 138.39 C 317.70 138.47 329.37 138.44 341.04 138.41 C 343.15 138.48 345.54 138.35 347.25 139.83 C 348.68 143.18 348.27 146.99 349.46 150.43 C 353.20 161.74 365.77 169.61 377.60 167.31 C 387.43 165.57 395.79 157.67 398.02 147.93 C 401.06 135.31 392.56 121.08 379.87 118.05 C 370.77 116.05 361.39 117.58 352.19 116.82 C 349.90 116.49 350.04 113.76 349.98 112.04 C 350.09 101.66 349.83 91.27 350.10 80.90 C 350.02 78.30 352.89 77.55 354.98 77.73 C 368.35 77.72 381.73 77.61 395.10 77.78 C 398.50 77.36 399.86 81.69 398.11 84.07 C 396.38 85.39 394.05 85.19 392.00 85.32 C 380.35 85.29 368.70 85.30 357.04 85.29 C 356.98 93.43 356.97 101.57 357.05 109.71 C 367.63 109.93 378.98 108.20 388.75 113.29 C 398.30 118.13 404.56 128.24 406.00 138.70 L 406.00 146.59 C 404.20 161.10 391.99 173.45 377.38 175.00 L 368.61 175.00 C 361.07 173.64 353.87 169.97 348.78 164.18 C 344.15 159.13 341.74 152.45 340.66 145.78 C 328.44 145.82 316.21 145.76 303.99 145.81 C 301.88 145.99 299.94 145.15 298.19 144.08 C 297.96 137.01 297.79 129.93 298.20 122.87 C 298.65 115.83 302.19 109.08 307.78 104.76 C 315.98 98.49 325.44 93.96 333.35 87.28 C 339.87 81.82 340.25 71.75 336.23 64.71 C 331.05 56.09 318.66 53.39 309.94 57.91 C 306.06 59.72 303.57 64.07 298.93 64.15 C 297.71 62.48 296.14 60.47 297.41 58.35 Z" />
<path fill="#3c3b3c" opacity="1.00" d=" M 55.02 77.02 C 60.28 65.62 71.41 57.19 83.82 55.22 C 94.52 53.64 106.24 55.17 115.06 61.84 C 117.91 64.05 121.03 66.31 122.78 69.55 C 118.44 72.81 113.60 75.35 109.10 78.37 C 103.99 73.51 97.29 69.88 90.04 70.34 C 81.64 70.52 74.11 76.50 71.02 84.14 C 66.28 95.21 69.65 110.03 80.44 116.27 C 89.04 121.52 100.66 119.57 107.93 112.89 C 109.23 112.01 110.16 110.25 111.80 110.05 C 115.50 113.20 118.66 116.92 122.22 120.23 C 109.08 137.89 80.75 139.65 64.52 125.34 C 50.91 113.80 47.32 92.89 55.02 77.02 Z" />
<path fill="#3c3b3c" opacity="1.00" d=" M 185.27 66.23 C 200.71 50.09 230.02 50.76 244.42 67.97 C 240.61 71.87 237.21 76.16 233.22 79.87 C 228.76 75.45 223.43 71.30 216.98 70.60 C 208.92 69.19 200.26 73.04 195.91 79.96 C 189.00 90.09 190.26 105.30 199.48 113.61 C 206.65 120.42 218.43 121.04 226.64 115.76 C 229.34 114.17 231.43 111.79 234.02 110.06 C 238.24 112.85 241.47 116.89 245.01 120.46 C 239.29 126.69 232.23 132.01 223.81 133.79 C 209.90 136.96 194.02 133.37 184.33 122.49 C 169.67 107.48 170.26 80.80 185.27 66.23 Z" />
<path fill="#3c3b3c" opacity="1.00" d=" M 151.68 150.02 C 152.14 150.12 153.06 150.32 153.51 150.42 C 154.01 153.57 153.52 156.83 154.51 159.92 C 153.88 159.85 152.62 159.71 151.99 159.64 C 151.63 156.45 151.66 153.23 151.68 150.02 Z" />
</g>
<g id="#c14700ff">
<path fill="#c14700" opacity="1.00" d=" M 252.47 56.06 C 263.16 55.96 273.85 55.96 284.54 56.06 C 284.37 67.22 284.72 78.39 284.37 89.54 C 283.87 98.56 276.29 105.58 268.04 107.96 C 265.42 105.28 262.88 102.48 260.87 99.32 C 263.07 98.10 265.36 96.96 267.32 95.35 C 269.37 93.56 270.07 90.81 270.74 88.28 C 264.69 88.20 258.64 88.23 252.60 88.26 C 252.37 77.53 252.62 66.79 252.47 56.06 M 259.84 62.78 C 259.92 69.37 259.60 75.98 260.07 82.56 C 261.99 82.53 263.92 82.51 265.85 82.51 C 266.13 80.15 266.26 77.78 266.30 75.41 C 267.30 75.56 268.32 75.70 269.33 75.83 C 269.78 78.02 270.19 80.22 270.59 82.42 C 272.66 82.46 274.74 82.50 276.83 82.54 C 276.59 79.59 276.06 76.67 275.30 73.82 C 274.73 73.62 273.58 73.22 273.01 73.02 C 277.37 71.28 277.66 64.61 273.40 62.63 C 269.33 61.33 264.92 61.90 260.72 61.80 C 260.50 62.04 260.06 62.53 259.84 62.78 Z" />
</g>
<g id="#808080ff">
<path fill="#808080" opacity="1.00" d=" M 17.99 61.73 C 21.17 61.73 24.35 61.71 27.52 61.63 C 27.52 63.71 27.51 65.79 27.49 67.86 C 29.32 67.92 31.14 67.98 32.97 68.06 C 33.04 74.70 32.98 81.35 33.00 88.00 C 27.66 88.00 22.33 88.00 16.99 88.00 C 17.06 84.54 17.08 81.08 16.70 77.65 C 13.37 77.77 10.04 77.78 6.70 77.77 C 6.70 73.32 6.65 68.87 6.76 64.42 C 10.36 64.41 13.96 64.65 17.55 64.36 C 17.66 63.71 17.88 62.39 17.99 61.73 Z" />
</g>
<g id="#bcbbbcff">
<path fill="#bcbbbc" opacity="1.00" d=" M 259.84 62.78 C 260.06 62.53 260.50 62.04 260.72 61.80 C 264.92 61.90 269.33 61.33 273.40 62.63 C 277.66 64.61 277.37 71.28 273.01 73.02 C 273.58 73.22 274.73 73.62 275.30 73.82 C 276.06 76.67 276.59 79.59 276.83 82.54 C 274.74 82.50 272.66 82.46 270.59 82.42 C 270.19 80.22 269.78 78.02 269.33 75.83 C 268.32 75.70 267.30 75.56 266.30 75.41 C 266.26 77.78 266.13 80.15 265.85 82.51 C 263.92 82.51 261.99 82.53 260.07 82.56 C 259.60 75.98 259.92 69.37 259.84 62.78 M 266.23 67.17 C 266.23 68.47 266.24 69.76 266.25 71.06 C 267.60 70.84 268.96 70.63 270.31 70.41 C 270.30 69.47 270.30 68.53 270.29 67.60 C 268.94 67.45 267.58 67.31 266.23 67.17 Z" />
</g>
<g id="#d54200ff">
<path fill="#d54200" opacity="1.00" d=" M 266.23 67.17 C 267.58 67.31 268.94 67.45 270.29 67.60 C 270.30 68.53 270.30 69.47 270.31 70.41 C 268.96 70.63 267.60 70.84 266.25 71.06 C 266.24 69.76 266.23 68.47 266.23 67.17 Z" />
</g>
<g id="#870006ff">
<path fill="#870006" opacity="1.00" d=" M 1.64 78.92 C 6.37 78.99 11.10 78.97 15.82 78.97 C 15.81 83.64 15.79 88.31 15.85 92.97 C 11.11 93.02 6.37 93.11 1.63 92.92 C 1.72 88.25 1.73 83.59 1.64 78.92 Z" />
</g>
<g id="#870007ff">
<path fill="#870007" opacity="1.00" d=" M 19.42 98.23 C 21.87 98.21 24.32 98.22 26.77 98.24 C 26.79 100.69 26.79 103.14 26.77 105.59 C 24.32 105.58 21.88 105.57 19.44 105.54 C 19.43 103.11 19.43 100.67 19.42 98.23 Z" />
</g>
<g id="#3e3e3fff">
<path fill="#3e3e3f" opacity="1.00" d=" M 320.74 129.04 C 319.81 126.38 322.50 123.88 325.03 124.88 C 327.78 125.65 326.87 128.97 327.04 131.09 C 327.51 133.14 325.02 135.33 323.13 134.18 C 320.25 132.19 327.88 134.65 326.70 131.06 C 324.69 131.35 321.20 131.89 320.74 129.04 M 323.14 126.05 C 320.17 127.03 322.34 131.84 325.02 129.88 C 327.49 128.94 325.19 124.52 323.14 126.05 Z" />
<path fill="#3e3e3f" opacity="1.00" d=" M 329.23 129.88 C 327.29 127.39 330.28 123.59 333.14 124.89 C 335.82 125.61 335.34 128.98 335.31 131.11 C 335.63 133.43 333.05 135.09 331.04 134.15 C 332.45 133.34 334.00 132.60 334.64 130.99 C 332.85 131.20 330.27 131.90 329.23 129.88 M 331.11 126.02 C 328.21 126.89 330.57 131.56 332.96 129.94 C 335.71 129.08 333.50 124.46 331.11 126.02 Z" />
<path fill="#3e3e3f" opacity="1.00" d=" M 352.38 126.69 C 353.60 123.22 357.89 124.89 358.15 128.02 C 356.42 129.62 354.20 130.90 353.42 133.27 C 355.09 133.39 356.75 133.54 358.42 133.73 C 356.58 134.51 354.54 134.30 352.60 134.34 C 352.69 133.21 352.72 132.07 352.94 130.96 C 354.12 129.49 356.33 128.82 356.76 126.82 C 355.46 125.42 353.87 126.12 352.38 126.69 Z" />
<path fill="#3e3e3f" opacity="1.00" d=" M 363.58 124.71 C 367.37 124.22 370.19 128.87 368.19 132.08 C 366.47 135.56 360.73 135.21 359.46 131.57 C 358.08 128.64 360.29 124.80 363.58 124.71 M 362.34 126.27 C 360.52 127.06 359.30 129.55 360.55 131.31 C 361.83 133.85 365.52 134.20 367.10 131.76 C 369.40 128.88 365.49 124.25 362.34 126.27 Z" />
<path fill="#3e3e3f" opacity="1.00" d=" M 369.67 126.61 C 370.49 124.12 375.01 123.87 375.08 126.95 C 375.65 129.93 371.07 130.30 371.22 133.30 C 372.35 133.40 374.61 133.61 375.74 133.72 C 373.94 134.44 371.98 134.35 370.08 134.37 C 369.44 131.20 371.66 129.33 374.18 128.02 C 373.94 127.42 373.45 126.22 373.21 125.63 C 372.03 125.96 370.85 126.29 369.67 126.61 Z" />
<path fill="#3e3e3f" opacity="1.00" d=" M 380.54 124.73 C 383.56 124.19 386.77 126.87 386.30 130.03 C 386.38 134.09 380.52 136.12 377.95 133.13 C 375.12 130.61 376.71 125.14 380.54 124.73 M 380.07 126.08 C 378.32 126.90 376.85 129.10 377.91 131.00 C 378.96 134.12 383.96 134.21 384.91 130.95 C 386.33 128.18 382.79 124.68 380.07 126.08 Z" />
<path fill="#3e3e3f" opacity="1.00" d=" M 195.90 146.87 C 198.35 145.40 203.64 145.49 203.33 149.42 C 201.27 148.73 198.84 146.91 196.85 148.74 C 194.42 151.47 194.78 157.40 198.93 158.24 C 200.52 158.12 201.88 157.16 203.33 156.61 C 203.59 161.03 197.00 160.78 194.77 158.29 C 192.52 154.94 192.50 149.46 195.90 146.87 Z" />
</g>
<g id="#3b3a3bff">
<path fill="#3b3a3b" opacity="1.00" d=" M 337.54 124.99 C 339.50 124.96 341.51 124.89 343.40 125.55 C 341.92 126.35 337.80 125.04 338.87 127.83 C 339.65 127.92 341.21 128.08 342.00 128.16 C 343.79 129.86 343.98 133.41 341.23 134.25 C 338.67 135.47 336.30 132.56 336.91 130.06 C 337.88 131.44 338.89 132.80 340.10 134.00 C 340.79 132.93 343.45 131.70 342.03 130.18 C 341.38 128.45 339.20 129.24 337.84 128.90 C 337.73 127.60 337.63 126.29 337.54 124.99 Z" />
<path fill="#3b3a3b" opacity="1.00" d=" M 58.39 146.60 C 60.80 145.56 66.10 145.62 65.28 149.45 C 63.30 148.53 60.73 146.90 58.80 148.84 C 56.90 151.22 56.82 155.58 59.31 157.57 C 61.29 159.16 63.49 157.39 65.37 156.62 C 65.47 161.56 57.31 160.83 56.04 156.93 C 54.85 153.53 54.90 148.63 58.39 146.60 Z" />
<path fill="#3b3a3b" opacity="1.00" d=" M 113.45 147.46 C 113.94 147.49 114.93 147.55 115.42 147.58 C 115.47 148.21 115.56 149.46 115.60 150.09 C 116.44 150.23 118.11 150.51 118.95 150.65 C 118.16 151.79 116.86 152.11 115.53 152.25 C 115.55 154.30 115.60 156.35 115.73 158.41 C 116.74 158.06 117.75 157.72 118.77 157.39 C 118.75 157.96 118.72 159.12 118.70 159.70 C 117.06 159.73 114.32 160.63 113.69 158.49 C 113.14 154.85 113.56 151.13 113.45 147.46 Z" />
<path fill="#3b3a3b" opacity="1.00" d=" M 225.34 147.20 C 225.82 147.36 226.77 147.67 227.25 147.82 C 227.26 148.43 227.28 149.64 227.30 150.25 C 227.96 150.23 229.29 150.20 229.95 150.18 C 229.97 150.63 230.01 151.53 230.03 151.98 C 229.34 151.99 227.95 152.02 227.26 152.04 C 227.30 154.15 227.33 156.25 227.41 158.36 C 228.44 158.06 229.46 157.76 230.49 157.46 C 230.53 157.99 230.61 159.06 230.65 159.59 C 228.87 159.74 226.57 160.67 225.49 158.68 C 224.86 154.90 225.27 151.02 225.34 147.20 Z" />
<path fill="#3b3a3b" opacity="1.00" d=" M 121.45 150.42 C 123.18 150.31 125.08 149.54 126.70 150.51 C 128.33 151.63 128.08 153.84 128.50 155.54 C 126.28 155.56 124.06 155.56 121.85 155.58 C 122.66 158.91 125.95 158.10 128.51 157.49 C 127.79 160.20 124.61 160.39 122.40 159.67 C 119.06 157.77 119.63 153.21 121.45 150.42 M 121.71 153.86 C 123.35 153.92 125.00 153.93 126.64 153.91 C 126.24 153.38 125.43 152.33 125.03 151.80 C 123.39 151.10 122.49 152.81 121.71 153.86 Z" />
<path fill="#3b3a3b" opacity="1.00" d=" M 214.98 150.37 C 217.38 150.53 220.13 149.33 222.26 150.82 C 223.46 153.67 222.90 156.87 222.94 159.87 C 222.47 159.88 221.54 159.88 221.07 159.89 C 221.02 157.21 220.96 154.53 220.78 151.87 C 219.50 152.06 217.54 151.41 216.91 152.98 C 216.66 155.25 216.78 157.54 216.77 159.83 C 216.35 159.85 215.50 159.90 215.08 159.92 C 214.98 156.74 214.97 153.56 214.98 150.37 Z" />
</g>
<g id="#fdfdfdff">
</g>
<g id="#fefefeff">
</g>
<g id="#4e4e4eff">
<path fill="#4e4e4e" opacity="1.00" d=" M 345.20 129.34 C 346.71 128.53 348.59 128.84 350.23 129.04 C 352.07 129.95 348.57 130.33 348.02 130.15 C 346.70 130.40 345.76 130.12 345.20 129.34 Z" />
</g>
<g id="#393939ff">
<path fill="#393939" opacity="1.00" d=" M 139.08 146.29 C 139.65 146.30 140.80 146.33 141.38 146.34 C 142.54 149.92 143.69 153.49 144.87 157.07 C 146.12 153.50 147.24 149.89 148.56 146.35 C 150.36 146.44 152.17 146.40 153.98 146.23 C 153.53 147.00 153.96 149.01 152.53 148.55 C 152.05 148.09 151.09 147.18 150.62 146.72 C 148.96 151.09 147.44 155.51 145.81 159.89 C 145.28 159.84 144.23 159.73 143.70 159.68 C 142.27 155.17 140.63 150.74 139.08 146.29 Z" />
<path fill="#393939" opacity="1.00" d=" M 164.06 146.41 C 164.80 146.37 166.28 146.30 167.01 146.27 C 166.62 147.19 166.80 148.84 165.34 148.67 C 164.81 147.97 164.39 147.22 164.06 146.41 Z" />
<path fill="#393939" opacity="1.00" d=" M 69.20 150.31 C 73.41 148.29 76.83 153.26 75.20 157.02 C 74.44 161.06 67.57 161.02 66.81 157.01 C 66.06 154.71 66.62 151.19 69.20 150.31 M 69.22 152.49 C 67.97 154.72 68.59 157.66 71.04 158.78 C 72.17 157.77 73.66 156.77 73.38 155.01 C 73.91 152.62 71.06 150.47 69.22 152.49 Z" />
<path fill="#393939" opacity="1.00" d=" M 92.98 150.36 C 95.43 150.46 98.56 149.20 100.46 151.32 C 101.60 153.71 101.72 156.87 99.98 159.00 C 98.54 160.31 96.46 159.84 94.72 159.70 C 94.75 161.07 94.77 162.43 94.78 163.80 C 94.36 163.82 93.52 163.85 93.10 163.86 C 92.92 159.36 93.02 154.86 92.98 150.36 M 94.88 151.92 C 94.82 153.75 94.76 155.57 94.69 157.40 C 96.03 158.02 98.34 158.94 98.80 156.80 C 100.37 153.98 98.11 150.62 94.88 151.92 Z" />
<path fill="#393939" opacity="1.00" d=" M 103.19 149.52 C 106.31 151.18 104.56 155.24 105.16 158.09 C 106.37 158.03 107.58 157.97 108.78 157.91 C 108.97 155.20 109.02 152.49 109.16 149.79 C 109.59 150.07 110.45 150.64 110.87 150.93 C 111.18 153.87 110.96 156.83 110.96 159.78 C 108.52 159.33 105.05 161.01 103.38 158.65 C 102.56 155.70 103.09 152.54 103.19 149.52 Z" />
<path fill="#393939" opacity="1.00" d=" M 130.22 150.28 C 132.08 150.27 133.94 150.20 135.80 150.23 C 135.65 150.71 135.35 151.67 135.20 152.16 C 134.49 152.14 133.08 152.12 132.37 152.11 C 132.32 154.68 132.30 157.26 132.27 159.83 C 131.76 159.83 130.75 159.82 130.24 159.82 C 130.20 156.64 130.22 153.46 130.22 150.28 Z" />
<path fill="#393939" opacity="1.00" d=" M 155.96 151.96 C 157.06 149.12 160.66 149.92 162.84 150.92 C 162.66 151.35 162.31 152.22 162.14 152.66 C 160.63 152.08 159.04 151.78 157.43 151.77 C 158.22 154.62 163.04 153.63 162.81 156.98 C 163.03 160.71 155.25 161.43 155.81 157.31 C 157.28 157.85 161.49 159.32 160.57 156.44 C 158.55 155.40 155.23 155.08 155.96 151.96 Z" />
<path fill="#393939" opacity="1.00" d=" M 164.64 150.10 C 165.12 150.16 166.08 150.27 166.55 150.33 C 166.57 153.55 166.09 156.96 167.70 159.91 C 166.70 159.61 164.71 160.02 164.75 158.45 C 164.61 155.67 164.72 152.88 164.64 150.10 Z" />
<path fill="#393939" opacity="1.00" d=" M 171.21 150.36 C 172.96 149.73 175.40 149.68 176.56 151.40 C 178.83 154.38 177.49 160.38 173.03 160.01 C 167.95 160.37 167.14 152.16 171.21 150.36 M 172.95 158.44 C 175.94 158.11 175.38 154.73 175.41 152.58 C 174.80 152.37 173.57 151.94 172.96 151.72 C 169.80 152.20 170.00 157.61 172.95 158.44 Z" />
<path fill="#393939" opacity="1.00" d=" M 205.23 152.17 C 206.21 149.52 209.47 150.03 211.69 150.32 C 212.59 151.90 212.98 153.67 212.95 155.49 C 210.75 155.54 208.56 155.59 206.38 155.70 C 207.37 158.64 210.29 158.53 212.64 157.25 C 213.30 159.98 209.87 160.29 208.01 159.88 C 204.50 159.40 203.98 154.81 205.23 152.17 M 206.32 153.88 C 208.00 153.93 209.68 153.93 211.37 153.88 C 210.61 152.96 209.54 150.58 208.04 151.95 C 207.61 152.43 206.75 153.40 206.32 153.88 Z" />
<path fill="#393939" opacity="1.00" d=" M 233.60 159.34 C 229.86 156.69 231.69 148.65 236.99 150.05 C 239.83 150.20 239.98 153.44 240.01 155.59 C 237.81 155.58 235.61 155.57 233.42 155.65 C 234.49 159.06 237.82 157.85 240.48 157.74 C 239.02 160.08 235.95 160.67 233.60 159.34 M 233.34 153.87 C 235.01 153.94 236.70 153.96 238.38 153.94 C 237.86 152.83 237.07 152.01 236.00 151.48 C 234.94 152.07 234.05 152.86 233.34 153.87 Z" />
<path fill="#393939" opacity="1.00" d=" M 241.95 150.36 C 243.74 150.32 245.53 150.17 247.33 150.09 C 247.28 150.60 247.18 151.62 247.13 152.14 C 246.37 152.13 244.84 152.13 244.08 152.13 C 244.02 154.72 243.98 157.30 243.91 159.89 C 243.46 159.90 242.56 159.92 242.12 159.94 C 241.99 156.74 241.97 153.55 241.95 150.36 Z" />
</g>
<g id="#fffeffff">
</g>
<g id="#3a3a3aff">
<path fill="#3a3a3a" opacity="1.00" d=" M 77.21 150.31 C 81.38 150.28 85.55 150.31 89.72 150.19 C 90.87 153.26 90.57 156.56 90.57 159.76 C 90.04 159.78 88.98 159.81 88.45 159.82 C 88.48 157.14 88.45 154.47 88.25 151.80 C 87.46 151.86 85.87 151.97 85.07 152.02 C 85.01 154.57 85.12 157.13 84.82 159.66 C 84.41 159.79 83.58 160.05 83.17 160.18 C 83.02 157.44 82.95 154.70 82.79 151.97 C 81.50 152.06 79.77 151.47 79.15 153.02 C 78.89 155.43 78.98 157.86 78.85 160.28 C 78.48 160.09 77.74 159.70 77.36 159.50 C 77.02 156.45 77.25 153.37 77.21 150.31 Z" />
</g>
<g id="#3f3d3eff">
<path fill="#3f3d3e" opacity="1.00" d=" M 179.19 150.28 C 181.65 150.24 184.12 150.11 186.58 150.21 C 187.64 153.27 187.32 156.53 187.31 159.71 C 186.80 159.77 185.79 159.91 185.28 159.97 C 185.20 157.35 185.17 154.72 185.16 152.10 C 184.26 152.06 182.46 151.98 181.56 151.94 C 181.30 154.53 181.27 157.14 181.31 159.74 C 180.80 159.79 179.79 159.89 179.28 159.94 C 179.16 156.72 179.18 153.50 179.19 150.28 Z" />
</g>
<g id="#fdfcfeff">
</g>
</svg>
